<?xml version="1.0" encoding="UTF-8"?><svg xmlns="http://www.w3.org/2000/svg" xmlns:xlink="http://www.w3.org/1999/xlink" viewBox="0 0 181.44 53.96"><defs><style>.g{fill:#826fa8;}.g,.h,.i,.j,.k,.l,.m{stroke-width:0px;}.h{fill:none;}.i{fill:#afa69e;}.j{fill:#3f3356;}.n{opacity:.4;}.k{fill:url(#f);mix-blend-mode:screen;opacity:.45;}.o{clip-path:url(#e);}.l{fill:#5c4284;}.p{isolation:isolate;}.m{fill:url(#d);mix-blend-mode:color-burn;}</style><linearGradient id="d" x1="86.54" y1="44.66" x2="63.92" y2="31.61" gradientUnits="userSpaceOnUse"><stop offset=".12" stop-color="#fff" stop-opacity="0"/><stop offset=".97" stop-color="#000"/></linearGradient><clipPath id="e"><path class="h" d="M87.57,47.91l-18.59-23.75c-.06-.07-.12-.14-.19-.19-.19-13.46-13.29-23.96-29.99-23.96-.02,0-.04,0-.06,0-.01,0-.03,0-.03,0H10.87c-.33,0-.75.17-1.01.42L3.74,6.14c-.07.07-.13.14-.18.22-.23.23-.38.54-.38.89,0,.69.56,1.25,1.25,1.25h28.31c15.77,0,28.6,9.63,28.6,21.48s-12.83,21.48-28.6,21.48c-.69,0-1.25.56-1.25,1.25s.56,1.25,1.25,1.25c17.15,0,31.1-10.76,31.1-23.98,0-.19-.01-.38-.02-.56.01.02.02.05.03.06l18.06,23.25c.1.12.21.22.34.29.02,0,.03.02.04.03.13.07.27.11.41.13.01,0,.02,0,.03,0,.03,0,.06,0,.09,0,0,0,0,0,.01,0,.14,0,.27-.03.4-.08.04-.02.08-.04.12-.06.07-.03.14-.06.21-.11.01,0,.02-.02.03-.03.01,0,.03-.01.04-.02l3.78-3.37c.47-.42.53-1.12.14-1.62Z"/></clipPath><linearGradient id="f" x1="0" y1="4.37" x2="46.91" y2="4.37" gradientUnits="userSpaceOnUse"><stop offset="0" stop-color="#afa69e"/><stop offset=".82" stop-color="#afa69e" stop-opacity="0"/></linearGradient></defs><g class="p"><g id="b"><g id="c"><path class="l" d="M87.57,47.91l-18.59-23.75c-.06-.07-.12-.14-.19-.19-.19-13.46-13.29-23.96-29.99-23.96-.02,0-.04,0-.06,0-.01,0-.03,0-.03,0H10.87c-.33,0-.75.17-1.01.42L3.74,6.14c-.07.07-.13.14-.18.22-.23.23-.38.54-.38.89,0,.69.56,1.25,1.25,1.25h28.31c15.77,0,28.6,9.63,28.6,21.48s-12.83,21.48-28.6,21.48c-.69,0-1.25.56-1.25,1.25s.56,1.25,1.25,1.25c17.15,0,31.1-10.76,31.1-23.98,0-.19-.01-.38-.02-.56.01.02.02.05.03.06l18.06,23.25c.1.12.21.22.34.29.02,0,.03.02.04.03.13.07.27.11.41.13.01,0,.02,0,.03,0,.03,0,.06,0,.09,0,0,0,0,0,.01,0,.14,0,.27-.03.4-.08.04-.02.08-.04.12-.06.07-.03.14-.06.21-.11.01,0,.02-.02.03-.03.01,0,.03-.01.04-.02l3.78-3.37c.47-.42.53-1.12.14-1.62Z"/><path class="l" d="M66.38,38.89c-.42-.55-1.2-.65-1.75-.23-.32.25-.49.62-.49.99,0,.27.08.53.26.76l9.5,12.36c.25.32.62.49.99.49.27,0,.53-.08.76-.26.32-.25.49-.62.49-.99,0-.27-.08-.53-.26-.76l-9.5-12.36Z"/><path class="g" d="M63.39,43.93c-.42-.55-1.2-.66-1.75-.24-.32.25-.49.62-.49,1,0,.26.08.53.25.76l5.57,7.32c.25.32.62.49,1,.49.26,0,.53-.08.76-.25.32-.25.49-.62.49-1,0-.26-.08-.53-.25-.76l-5.57-7.32Z"/><path class="l" d="M59.45,47.61c-.41-.55-1.19-.67-1.75-.25-.33.25-.5.62-.5,1,0,.26.08.52.25.75l2.73,3.66c.25.33.62.5,1,.5.26,0,.52-.08.75-.25.33-.25.5-.62.5-1,0-.26-.08-.52-.25-.75l-2.73-3.66Z"/><path class="g" d="M32.74,37.46c-.69,0-1.25.56-1.25,1.25s.56,1.25,1.25,1.25c9.95,0,14.48-5.17,14.48-9.98s-4.53-9.98-14.48-9.98c-.69,0-1.25.56-1.25,1.25s.56,1.25,1.25,1.25c8.23,0,11.98,3.88,11.98,7.48s-3.75,7.48-11.98,7.48Z"/><path class="i" d="M32.74,46.96c12.88,0,22.97-7.46,22.97-16.98s-10.09-16.98-22.97-16.98c-.69,0-1.25.56-1.25,1.25s.56,1.25,1.25,1.25c11.29,0,20.47,6.5,20.47,14.48s-9.18,14.48-20.47,14.48c-.69,0-1.25.56-1.25,1.25s.56,1.25,1.25,1.25Z"/><path class="i" d="M25.16,37.46H4.43c-.69,0-1.25.56-1.25,1.25s.56,1.25,1.25,1.25h20.73c.69,0,1.25-.56,1.25-1.25s-.56-1.25-1.25-1.25Z"/><path class="g" d="M25.16,13.01H4.43c-.69,0-1.25.56-1.25,1.25s.56,1.25,1.25,1.25h20.73c.69,0,1.25-.56,1.25-1.25s-.56-1.25-1.25-1.25Z"/><path class="l" d="M25.16,20.01H4.43c-.69,0-1.25.56-1.25,1.25s.56,1.25,1.25,1.25h20.73c.69,0,1.25-.56,1.25-1.25s-.56-1.25-1.25-1.25Z"/><path class="g" d="M25.16,30.35H4.43c-.69,0-1.25.56-1.25,1.25s.56,1.25,1.25,1.25h20.73c.69,0,1.25-.56,1.25-1.25s-.56-1.25-1.25-1.25Z"/><path class="j" d="M105.72,9.91v1.35h-3.72v2.3h3.72v1.36h-3.72v3.91h-1.72v-8.92h5.44Z"/><path class="j" d="M109.19,9.91v5.19c0,.53.07.96.22,1.27.14.32.38.58.7.78.33.2.71.31,1.14.31.48,0,.88-.1,1.21-.29.33-.19.57-.46.73-.79s.23-.8.23-1.39v-5.08h1.55v5.3c0,1.2-.32,2.12-.97,2.77s-1.56.97-2.75.97c-.74,0-1.39-.15-1.93-.44-.55-.29-.96-.72-1.25-1.27-.29-.56-.43-1.21-.43-1.96v-5.36h1.56Z"/><path class="j" d="M119.32,9.91v6.03c0,.95-.26,1.72-.77,2.29-.51.57-1.19.86-2.03.86h-.17c-.05,0-.11,0-.17-.01l-.12-1.49c1.02,0,1.53-.6,1.53-1.79v-5.88h1.72Z"/><path class="j" d="M122.8,9.91v8.92h-1.72v-8.92h1.72Z"/><path class="j" d="M130.57,9.91v1.35h-4.04v2.34h3.87v1.35h-3.87v2.54h4.13v1.35h-5.86v-8.92h5.77Z"/><path class="j" d="M135.72,9.91c.93,0,1.75.19,2.48.57.72.38,1.29.91,1.69,1.6s.6,1.46.6,2.31-.2,1.65-.6,2.32-.97,1.2-1.71,1.57c-.74.37-1.59.56-2.55.56h-3.07v-8.92h3.17ZM135.55,17.48c.95,0,1.72-.29,2.3-.86.58-.57.87-1.32.87-2.25s-.29-1.72-.87-2.28-1.36-.84-2.35-.84h-1.21v6.23h1.27Z"/><path class="j" d="M145.77,9.91l3.94,8.92h-1.82l-.93-2.17h-3.97l-.86,2.17h-1.81l3.68-8.92h1.76ZM143.52,15.35h2.88l-1.51-3.53-1.37,3.53Z"/><path class="j" d="M103.16,27.27c.93,0,1.75.19,2.48.57.72.38,1.29.91,1.69,1.6s.6,1.46.6,2.31-.2,1.65-.6,2.32-.97,1.2-1.71,1.57c-.74.37-1.59.56-2.55.56h-3.07v-8.92h3.17ZM102.99,34.84c.95,0,1.72-.29,2.3-.86.58-.57.87-1.32.87-2.25s-.29-1.72-.87-2.28-1.36-.84-2.35-.84h-1.21v6.23h1.27Z"/><path class="j" d="M111.3,27.27v8.92h-1.72v-8.92h1.72Z"/><path class="j" d="M117.99,27.15c1.1,0,2.19.25,3.27.73v1.58c-1.08-.55-2.15-.82-3.19-.82-.65,0-1.23.13-1.74.39s-.9.63-1.18,1.12c-.28.49-.42,1.03-.42,1.63,0,.91.3,1.64.91,2.2s1.41.83,2.4.83c.27,0,.53-.02.78-.07s.55-.14.89-.27v-1.48h-1.48v-1.35h3.2v3.68c-.44.31-.96.55-1.58.72-.62.17-1.25.26-1.92.26-.94,0-1.79-.19-2.56-.58-.76-.39-1.36-.93-1.79-1.63s-.64-1.48-.64-2.34.22-1.66.65-2.37c.43-.71,1.03-1.26,1.81-1.65s1.63-.59,2.58-.59Z"/><path class="j" d="M125.04,27.27v8.92h-1.72v-8.92h1.72Z"/><path class="j" d="M134.44,27.27v1.35h-3.17v7.57h-1.72v-7.57h-3.17v-1.35h8.06Z"/><path class="j" d="M139.14,27.27l3.94,8.92h-1.82l-.93-2.17h-3.97l-.86,2.17h-1.81l3.68-8.92h1.76ZM136.89,32.71h2.88l-1.51-3.53-1.37,3.53Z"/><path class="j" d="M145.85,27.27v7.57h4.33v1.35h-6.05v-8.92h1.72Z"/><path class="j" d="M103.1,44.62l3.94,8.92h-1.82l-.93-2.17h-3.97l-.86,2.17h-1.81l3.68-8.92h1.76ZM100.85,50.07h2.88l-1.51-3.53-1.37,3.53Z"/><path class="j" d="M111.02,44.62c.84,0,1.52.23,2.05.7.53.46.79,1.07.79,1.81,0,.51-.13.95-.39,1.33-.26.38-.65.67-1.17.89.29.15.54.36.76.63.22.26.5.71.82,1.33.54,1.08.95,1.83,1.21,2.24h-1.92c-.13-.2-.31-.51-.54-.94-.49-.95-.86-1.59-1.08-1.92-.23-.33-.45-.56-.67-.7-.21-.14-.46-.21-.73-.21h-.62v3.77h-1.72v-8.92h3.21ZM110.63,48.43c.45,0,.81-.11,1.06-.34s.39-.53.39-.93-.13-.71-.38-.92c-.25-.2-.62-.3-1.09-.3h-1.07v2.48h1.1Z"/><path class="j" d="M123.34,44.62v1.35h-3.17v7.57h-1.72v-7.57h-3.17v-1.35h8.06Z"/><path class="j" d="M130.41,44.62l2.93,3.52,2.93-3.52h1.54v8.92h-1.72v-6.26h-.05l-2.58,3.14h-.24l-2.58-3.14h-.05v6.26h-1.72v-8.92h1.55Z"/><path class="j" d="M141.1,44.62v5.19c0,.53.07.96.22,1.27.14.32.38.58.7.78.33.2.71.31,1.14.31.48,0,.88-.1,1.21-.29.33-.19.57-.46.73-.79s.23-.8.23-1.39v-5.08h1.55v5.3c0,1.2-.32,2.12-.97,2.77s-1.56.97-2.75.97c-.74,0-1.39-.15-1.93-.44-.55-.29-.96-.72-1.25-1.27-.29-.56-.43-1.21-.43-1.96v-5.36h1.56Z"/><path class="j" d="M151.49,44.51c.87,0,1.71.22,2.51.65v1.53c-.92-.56-1.74-.84-2.46-.84-.43,0-.77.08-1.02.25-.25.17-.37.39-.37.67,0,.34.23.65.68.93.13.08.62.32,1.48.71.73.34,1.26.73,1.58,1.15.32.42.49.93.49,1.52,0,.77-.28,1.38-.83,1.85-.55.47-1.27.71-2.14.71-.57,0-1.06-.06-1.47-.19-.41-.13-.87-.34-1.38-.65v-1.7c.95.79,1.85,1.19,2.69,1.19.42,0,.76-.09,1.02-.27.26-.18.39-.43.39-.73,0-.41-.23-.75-.68-1.01-.37-.2-.86-.45-1.45-.73-.7-.32-1.23-.69-1.57-1.12s-.52-.92-.52-1.48c0-.75.28-1.35.84-1.79.56-.44,1.29-.67,2.21-.67Z"/><path class="j" d="M161.66,44.62v1.35h-4.04v2.34h3.87v1.35h-3.87v2.54h4.13v1.35h-5.86v-8.92h5.77Z"/><path class="j" d="M164.97,44.62v5.19c0,.53.07.96.22,1.27.14.32.38.58.7.78.33.2.71.31,1.14.31.48,0,.88-.1,1.21-.29.33-.19.57-.46.73-.79s.23-.8.23-1.39v-5.08h1.55v5.3c0,1.2-.32,2.12-.97,2.77s-1.56.97-2.75.97c-.74,0-1.39-.15-1.93-.44-.55-.29-.96-.72-1.25-1.27-.29-.56-.43-1.21-.43-1.96v-5.36h1.56Z"/><path class="j" d="M174.04,44.62l2.93,3.52,2.93-3.52h1.54v8.92h-1.72v-6.26h-.05l-2.58,3.14h-.24l-2.58-3.14h-.05v6.26h-1.72v-8.92h1.55Z"/><g class="n"><polygon class="m" points="68.79 23.96 63.86 29.49 81.53 52.23 87.4 47.72 68.79 23.96"/></g><g class="o"><polygon class="k" points="36.99 8.74 0 8.74 9.92 0 46.91 0 36.99 8.74"/></g></g></g></g></svg>